<?xml version="1.0" encoding="UTF-8" standalone="no"?><!DOCTYPE svg PUBLIC "-//W3C//DTD SVG 1.1//EN" "http://www.w3.org/Graphics/SVG/1.1/DTD/svg11.dtd"><svg width="100%" height="100%" viewBox="0 0 1000 1000" version="1.1" xmlns="http://www.w3.org/2000/svg" xmlns:xlink="http://www.w3.org/1999/xlink" xml:space="preserve" xmlns:serif="http://www.serif.com/" style="fill-rule:evenodd;clip-rule:evenodd;stroke-linecap:round;stroke-linejoin:round;stroke-miterlimit:1.5;"><path d="M115.906,356.15c-0,-0 85.898,-71.915 209.75,-8.989c0,-0 17.979,123.527 -67.919,202.595l-96.885,0c0,0 -59.928,-54.772 -44.946,-193.606Z" style="fill:#fff;stroke:#000;stroke-width:7.88px;"/><path d="M884.094,356.15c0,-0 -85.898,-71.915 -209.75,-8.989c-0,-0 -17.979,123.527 67.919,202.595l96.885,0c-0,0 59.928,-54.772 44.946,-193.606Z" style="fill:#fff;stroke:#000;stroke-width:7.88px;"/><path d="M118.703,425.294l200.302,0c0,0 9.164,-56.032 3.142,-75.669c-6.022,-19.637 -131.44,-47.392 -202.396,7.855c-0,-0 -4.713,46.344 -1.048,67.814Z" style="fill:url(#_Linear1);"/><path d="M881.297,425.294l-200.302,0c-0,0 -9.164,-56.032 -3.142,-75.669c6.022,-19.637 131.44,-47.392 202.396,7.855c0,-0 4.713,46.344 1.048,67.814Z" style="fill:url(#_Linear2);"/><path d="M118.514,421.541c-2.074,-18.925 166.54,-39.956 200.497,3.753c-0,0 -10.228,70.711 -62.185,121.032l-94.52,-0.383c0,-0 -33.176,-27.53 -43.792,-124.402Z" style="fill:url(#_Linear3);"/><path d="M881.486,421.541c2.074,-18.925 -166.54,-39.956 -200.497,3.753c0,0 10.228,70.711 62.185,121.032l94.52,-0.383c-0,-0 33.176,-27.53 43.792,-124.402Z" style="fill:url(#_Linear4);"/><ellipse cx="218.145" cy="423.188" rx="30.594" ry="48.041"/><ellipse cx="781.855" cy="423.188" rx="30.594" ry="48.041"/><ellipse cx="187.551" cy="375.147" rx="30.594" ry="30.562" style="fill:#fff;"/><ellipse cx="751.26" cy="375.147" rx="30.594" ry="30.562" style="fill:#fff;"/><ellipse cx="248.74" cy="459.606" rx="14.055" ry="14.04" style="fill:#fff;"/><ellipse cx="804.779" cy="459.606" rx="14.055" ry="14.04" style="fill:#fff;"/><path d="M24.086,335.412c0,-0 18.378,23.13 52.738,13.391c-0,0 49.541,-43.826 90.292,-41.392c-0,0 -21.574,-6.087 -26.369,-28c0,-0 46.345,25.566 66.321,24.348c0,0 107.755,0 124.593,20.696c0,0 22.432,4.87 31.222,-19.478c-0,-0 -2.397,21.913 -15.182,29.217l21.574,15.827l6.105,11.989l-17.387,-7.013l12.273,21.816l-20.456,-14.024c0,-0 -37.843,-46.749 -147.28,-35.062c-0,0 -82.846,3.896 -103.813,45.97c0,-0 -14.83,91.159 33.752,183.098c0,-0 -62.389,-90.38 -48.07,-186.215c-0,0 -16.457,17.141 -43.561,11.687c0,0 41.934,-13.245 30.172,-20.257c0,-0 -41.686,3.681 -46.924,-26.598Z" style="stroke:#000;stroke-width:1px;"/><path d="M975.914,335.412c-0,-0 -18.378,23.13 -52.738,13.391c0,0 -49.541,-43.826 -90.292,-41.392c0,0 21.574,-6.087 26.369,-28c-0,-0 -46.345,25.566 -66.321,24.348c-0,0 -107.755,0 -124.593,20.696c-0,0 -22.432,4.87 -31.222,-19.478c0,-0 2.397,21.913 15.182,29.217l-21.574,15.827l-6.105,11.989l17.387,-7.013l-12.273,21.816l20.456,-14.024c-0,-0 37.843,-46.749 147.28,-35.062c0,0 82.846,3.896 103.813,45.97c-0,-0 14.83,91.159 -33.752,183.098c-0,-0 62.389,-90.38 48.07,-186.215c0,0 16.457,17.141 43.561,11.687c-0,0 -41.934,-13.245 -30.172,-20.257c-0,-0 41.686,3.681 46.924,-26.598Z" style="stroke:#000;stroke-width:1px;"/><defs><linearGradient id="_Linear1" x1="0" y1="0" x2="1" y2="0" gradientUnits="userSpaceOnUse" gradientTransform="matrix(206.889,0,0,100.295,117.308,375.147)"><stop offset="0" style="stop-color:#46e1ff;stop-opacity:1"/><stop offset="1" style="stop-color:#00d7ff;stop-opacity:1"/></linearGradient><linearGradient id="_Linear2" x1="0" y1="0" x2="1" y2="0" gradientUnits="userSpaceOnUse" gradientTransform="matrix(-206.889,0,0,100.295,882.692,375.147)"><stop offset="0" style="stop-color:#46e1ff;stop-opacity:1"/><stop offset="1" style="stop-color:#00d7ff;stop-opacity:1"/></linearGradient><linearGradient id="_Linear3" x1="0" y1="0" x2="1" y2="0" gradientUnits="userSpaceOnUse" gradientTransform="matrix(201.731,0,0,145.36,117.279,473.646)"><stop offset="0" style="stop-color:#00f4ff;stop-opacity:1"/><stop offset="1" style="stop-color:#00fff9;stop-opacity:1"/></linearGradient><linearGradient id="_Linear4" x1="0" y1="0" x2="1" y2="0" gradientUnits="userSpaceOnUse" gradientTransform="matrix(-201.731,0,0,145.36,882.721,473.646)"><stop offset="0" style="stop-color:#00f4ff;stop-opacity:1"/><stop offset="1" style="stop-color:#00fff9;stop-opacity:1"/></linearGradient></defs></svg>