<?xml version="1.0" encoding="UTF-8" standalone="no"?><!DOCTYPE svg PUBLIC "-//W3C//DTD SVG 1.1//EN" "http://www.w3.org/Graphics/SVG/1.1/DTD/svg11.dtd"><svg width="100%" height="100%" viewBox="0 0 1000 1000" version="1.1" xmlns="http://www.w3.org/2000/svg" xmlns:xlink="http://www.w3.org/1999/xlink" xml:space="preserve" xmlns:serif="http://www.serif.com/" style="fill-rule:evenodd;clip-rule:evenodd;stroke-linecap:round;stroke-linejoin:round;stroke-miterlimit:1.5;"><path d="M118.703,425.294l200.302,0c0,0 9.164,-56.032 3.142,-75.669c-6.022,-19.637 -131.44,-47.392 -202.396,7.855c-0,-0 -4.713,46.344 -1.048,67.814Z" style="fill:url(#_Linear1);"/><path d="M881.297,425.294l-200.302,0c-0,0 -9.164,-56.032 -3.142,-75.669c6.022,-19.637 131.44,-47.392 202.396,7.855c0,-0 4.713,46.344 1.048,67.814Z" style="fill:url(#_Linear2);"/><path d="M118.514,421.541c-2.074,-18.925 166.54,-39.956 200.497,3.753c-0,0 -10.228,70.711 -62.185,121.032l-94.52,-0.383c0,-0 -33.176,-27.53 -43.792,-124.402Z" style="fill:url(#_Linear3);"/><path d="M881.486,421.541c2.074,-18.925 -166.54,-39.956 -200.497,3.753c0,0 10.228,70.711 62.185,121.032l94.52,-0.383c-0,-0 33.176,-27.53 43.792,-124.402Z" style="fill:url(#_Linear4);"/><ellipse cx="218.145" cy="423.188" rx="30.594" ry="48.041"/><ellipse cx="781.855" cy="423.188" rx="30.594" ry="48.041"/><ellipse cx="187.551" cy="375.147" rx="30.594" ry="30.562" style="fill:#fff;"/><ellipse cx="751.26" cy="375.147" rx="30.594" ry="30.562" style="fill:#fff;"/><ellipse cx="248.74" cy="459.606" rx="14.055" ry="14.04" style="fill:#fff;"/><ellipse cx="804.779" cy="459.606" rx="14.055" ry="14.04" style="fill:#fff;"/><path d="M38.336,335.412c-0,-0 17.632,23.13 50.598,13.391c-0,0 47.531,-43.826 86.63,-41.392c-0,0 -20.699,-6.087 -25.299,-28c-0,-0 44.465,25.566 63.631,24.348c-0,0 103.383,0 119.539,20.696c-0,0 21.522,4.87 29.955,-19.478c-0,-0 -2.3,21.913 -14.566,29.217l20.699,15.827l5.857,11.989l-16.682,-7.013l11.775,21.816l-19.625,-14.024c-0,-0 -36.308,-46.749 -141.307,-35.062c0,0 -79.485,3.896 -99.601,45.97c-0,-0 -14.229,91.159 32.382,183.098c0,-0 -59.859,-90.38 -46.121,-186.215c0,0 -15.789,17.141 -41.793,11.687c0,0 40.233,-13.245 28.948,-20.257c0,-0 -39.995,3.681 -45.02,-26.598Z" style="stroke:#000;stroke-width:1px;"/><path d="M963.986,335.412c0,-0 -17.754,23.13 -50.946,13.391c-0,0 -47.859,-43.826 -87.227,-41.392c-0,0 20.842,-6.087 25.473,-28c0,-0 -44.771,25.566 -64.069,24.348c-0,0 -104.096,0 -120.363,20.696c0,0 -21.67,4.87 -30.161,-19.478c-0,-0 2.316,21.913 14.666,29.217l-20.842,15.827l-5.897,11.989l16.797,-7.013l-11.857,21.816l19.761,-14.024c0,-0 36.558,-46.749 142.28,-35.062c0,0 80.033,3.896 100.288,45.97c0,-0 14.327,91.159 -32.606,183.098c0,-0 60.272,-90.38 46.439,-186.215c-0,0 15.898,17.141 42.081,11.687c0,0 -40.51,-13.245 -29.148,-20.257c0,-0 40.271,3.681 45.331,-26.598Z" style="stroke:#000;stroke-width:1px;"/><text x="514.949px" y="1000px" style="font-family:'SegoeUI-BoldItalic', 'Segoe UI', sans-serif;font-weight:700;font-style:italic;font-size:266.667px;">SAL</text><defs><linearGradient id="_Linear1" x1="0" y1="0" x2="1" y2="0" gradientUnits="userSpaceOnUse" gradientTransform="matrix(206.889,0,0,100.295,117.308,375.147)"><stop offset="0" style="stop-color:#46e1ff;stop-opacity:1"/><stop offset="1" style="stop-color:#00d7ff;stop-opacity:1"/></linearGradient><linearGradient id="_Linear2" x1="0" y1="0" x2="1" y2="0" gradientUnits="userSpaceOnUse" gradientTransform="matrix(-206.889,0,0,100.295,882.692,375.147)"><stop offset="0" style="stop-color:#46e1ff;stop-opacity:1"/><stop offset="1" style="stop-color:#00d7ff;stop-opacity:1"/></linearGradient><linearGradient id="_Linear3" x1="0" y1="0" x2="1" y2="0" gradientUnits="userSpaceOnUse" gradientTransform="matrix(201.731,0,0,145.36,117.279,473.646)"><stop offset="0" style="stop-color:#00f4ff;stop-opacity:1"/><stop offset="1" style="stop-color:#00fff9;stop-opacity:1"/></linearGradient><linearGradient id="_Linear4" x1="0" y1="0" x2="1" y2="0" gradientUnits="userSpaceOnUse" gradientTransform="matrix(-201.731,0,0,145.36,882.721,473.646)"><stop offset="0" style="stop-color:#00f4ff;stop-opacity:1"/><stop offset="1" style="stop-color:#00fff9;stop-opacity:1"/></linearGradient></defs></svg>